P3
3 1
7
7 0 0
0 7 0
0 0 3
